<svg width="24" height="24" viewBox="0 0 24 24" fill="none" xmlns="http://www.w3.org/2000/svg">
<path d="M23.1684 12.9478C22.9997 11.0536 22.7217 10.6847 22.6167 10.5459C22.3753 10.2253 21.989 10.0158 21.5803 9.79594C21.5572 9.78371 21.5372 9.76629 21.522 9.74503C21.5067 9.72378 21.4967 9.69927 21.4925 9.67345C21.4884 9.64763 21.4903 9.62121 21.4981 9.59626C21.506 9.57131 21.5195 9.54852 21.5376 9.52969C21.6133 9.45292 21.6715 9.36067 21.7081 9.25928C21.7448 9.15789 21.7591 9.04977 21.75 8.94234C21.7323 8.75185 21.6438 8.57494 21.5018 8.44669C21.3598 8.31845 21.1749 8.24825 20.9836 8.25H20.2523C20.221 8.25019 20.1897 8.25222 20.1586 8.25609C20.1372 8.24683 20.1151 8.23946 20.0925 8.23406C19.6593 7.31859 19.0664 6.06516 17.8373 5.45344C16.0143 4.54687 12.6562 4.5 12 4.5C11.3437 4.5 7.98559 4.54687 6.16496 5.45203C4.9359 6.06375 4.34293 7.31719 3.90981 8.23266L3.90606 8.24016C3.88446 8.24319 3.86324 8.24854 3.84278 8.25609C3.81167 8.25222 3.78037 8.25019 3.74903 8.25H3.01637C2.82507 8.24825 2.6401 8.31845 2.49814 8.44669C2.35617 8.57494 2.26759 8.75185 2.24996 8.94234C2.24164 9.04952 2.25655 9.15723 2.29369 9.25811C2.33082 9.359 2.3893 9.45067 2.46512 9.52688C2.48326 9.54571 2.49678 9.5685 2.5046 9.59345C2.51243 9.6184 2.51435 9.64482 2.51021 9.67064C2.50607 9.69646 2.49599 9.72096 2.48077 9.74222C2.46554 9.76348 2.44558 9.7809 2.42246 9.79312C2.01371 10.0144 1.62559 10.2239 1.38606 10.5431C1.28106 10.6837 1.00356 11.0508 0.83434 12.945C0.74059 14.0109 0.726528 15.1144 0.800121 15.825C0.95434 17.3016 1.24356 18.1941 1.25575 18.2311C1.30013 18.3659 1.38182 18.4853 1.49134 18.5755C1.60087 18.6656 1.73373 18.7229 1.8745 18.7406V18.75C1.8745 18.9489 1.95351 19.1397 2.09417 19.2803C2.23482 19.421 2.42558 19.5 2.6245 19.5H5.2495C5.44841 19.5 5.63917 19.421 5.77983 19.2803C5.92048 19.1397 5.9995 18.9489 5.9995 18.75C6.40309 18.75 6.68387 18.6778 6.98153 18.6009C7.41127 18.4851 7.85053 18.4081 8.29403 18.3708C9.72418 18.2344 11.1464 18.1875 12 18.1875C12.8362 18.1875 14.3212 18.2344 15.7537 18.3708C16.199 18.4082 16.64 18.4855 17.0714 18.6019C17.3564 18.675 17.6268 18.7425 18.0014 18.7495C18.0014 18.9484 18.0804 19.1392 18.221 19.2799C18.3617 19.4205 18.5525 19.4995 18.7514 19.4995H21.3764C21.5753 19.4995 21.766 19.4205 21.9067 19.2799C22.0474 19.1392 22.1264 18.9484 22.1264 18.7495V18.7439C22.2675 18.7265 22.4007 18.6694 22.5106 18.5792C22.6205 18.489 22.7025 18.3694 22.747 18.2344C22.7592 18.1973 23.0484 17.3048 23.2026 15.8283C23.2762 15.1172 23.2631 14.0156 23.1684 12.9478ZM5.26543 8.87391C5.64043 8.07703 6.06934 7.17516 6.83293 6.795C7.93637 6.24563 10.2234 5.99812 12 5.99812C13.7765 5.99812 16.0636 6.24375 17.167 6.795C17.9306 7.17516 18.3576 8.0775 18.7345 8.87391L18.7814 8.97562C18.8088 9.03353 18.8209 9.0975 18.8166 9.16142C18.8122 9.22534 18.7916 9.28708 18.7566 9.34076C18.7217 9.39445 18.6735 9.43827 18.6168 9.46806C18.5601 9.49785 18.4967 9.51261 18.4326 9.51094C16.875 9.46875 13.5937 9.33375 12 9.33375C10.4062 9.33375 7.12496 9.47203 5.56496 9.51422C5.50092 9.51589 5.43751 9.50113 5.38079 9.47134C5.32407 9.44155 5.27593 9.39773 5.24096 9.34405C5.20599 9.29037 5.18535 9.22862 5.18102 9.1647C5.17669 9.10078 5.1888 9.03681 5.21621 8.97891C5.23262 8.94422 5.24996 8.90906 5.26543 8.87391V8.87391ZM5.82465 12.6066C5.01831 12.7036 4.20681 12.7515 3.39465 12.75C2.89778 12.75 2.38543 12.6094 2.29028 12.1669C2.22512 11.8692 2.23215 11.7019 2.26731 11.5336C2.29684 11.3906 2.34371 11.2866 2.57809 11.25C3.18746 11.1562 3.52825 11.2739 4.52575 11.5678C5.18715 11.7623 5.66434 12.0216 5.93621 12.2269C6.07262 12.3281 5.99996 12.5925 5.82465 12.6066V12.6066ZM16.2018 16.4503C15.585 16.5206 14.3512 16.4948 12.014 16.4948C9.67684 16.4948 8.44356 16.5206 7.82668 16.4503C7.19012 16.3795 6.37871 15.7777 6.93278 15.2414C7.30168 14.888 8.16231 14.6236 9.3084 14.475C10.4545 14.3264 10.9397 14.25 12.0093 14.25C13.079 14.25 13.515 14.2969 14.7103 14.4755C15.9056 14.6541 16.8089 14.9217 17.0859 15.2419C17.5912 15.8156 16.8379 16.3758 16.2018 16.4531V16.4503ZM21.7097 12.1664C21.6159 12.6108 21.1003 12.7495 20.6053 12.7495C19.7776 12.7497 18.9506 12.7018 18.1284 12.6061C17.985 12.5925 17.9184 12.3408 18.0637 12.2264C18.3314 12.0159 18.8137 11.7619 19.4742 11.5673C20.4717 11.2734 21.0468 11.1558 21.5409 11.2538C21.6614 11.2777 21.7251 11.407 21.7326 11.4881C21.7657 11.7139 21.7579 11.9438 21.7097 12.1669V12.1664Z" fill="#168944"/>
<path fill-rule="evenodd" clip-rule="evenodd" d="M4.5 19.5H5.2495C5.44841 19.5 5.63917 19.421 5.77983 19.2803C5.92048 19.1397 5.9995 18.9489 5.9995 18.75C6.40309 18.75 6.68387 18.6778 6.98153 18.6009C7.41127 18.4851 7.85053 18.4081 8.29403 18.3708C9.72418 18.2344 11.1464 18.1875 12 18.1875C12.8362 18.1875 14.3212 18.2344 15.7537 18.3708C16.199 18.4082 16.64 18.4855 17.0714 18.6019C17.3564 18.675 17.6268 18.7425 18.0014 18.7495C18.0014 18.9484 18.0804 19.1392 18.221 19.2798C18.3617 19.4205 18.5525 19.4995 18.7514 19.4995H21.3764C21.5753 19.4995 21.766 19.4205 21.9067 19.2798C22.0474 19.1392 22.1264 18.9484 22.1264 18.7495V18.7439C22.2675 18.7265 22.4007 18.6694 22.5106 18.5792C22.6205 18.489 22.7025 18.3694 22.747 18.2344C22.7592 18.1973 23.0484 17.3048 23.2026 15.8283C23.2762 15.1172 23.2631 14.0156 23.1684 12.9478C22.9997 11.0536 22.7217 10.6847 22.6167 10.5459C22.3753 10.2253 21.989 10.0158 21.5803 9.79591C21.5572 9.78369 21.5372 9.76626 21.522 9.74501C21.5067 9.72375 21.4967 9.69925 21.4925 9.67343C21.4884 9.64761 21.4903 9.62118 21.4981 9.59623C21.506 9.57128 21.5195 9.5485 21.5376 9.52966C21.6133 9.4529 21.6715 9.36065 21.7081 9.25926C21.7448 9.15787 21.7591 9.04975 21.75 8.94232C21.7323 8.75182 21.6438 8.57491 21.5018 8.44667C21.3598 8.31843 21.1749 8.24822 20.9836 8.24998H20.2523C20.221 8.25016 20.1897 8.2522 20.1586 8.25607C20.1372 8.24681 20.1151 8.23944 20.0925 8.23404L20.0924 8.23388C19.715 7.43614 19.2162 6.38183 18.2809 5.71912L17.1922 6.80778C17.94 7.19507 18.3618 8.08628 18.7345 8.87388L18.7814 8.9756C18.8088 9.03351 18.8209 9.09747 18.8166 9.16139C18.8122 9.22531 18.7916 9.28706 18.7566 9.34074C18.7217 9.39442 18.6735 9.43825 18.6168 9.46804C18.5601 9.49783 18.4967 9.51259 18.4326 9.51091C17.9549 9.49797 17.3149 9.4763 16.6113 9.45247C15.9731 9.43086 15.2824 9.40747 14.6128 9.38721L9.55745 14.4425C9.56741 14.4412 9.57732 14.4399 9.58718 14.4386C10.5412 14.3139 11.0306 14.25 12.0093 14.25C13.079 14.25 13.515 14.2969 14.7103 14.4754C15.9056 14.654 16.8089 14.9217 17.0859 15.2418C17.5912 15.8156 16.8379 16.3758 16.2018 16.4531V16.4503C15.7301 16.5041 14.8975 16.5016 13.4865 16.4975C13.0525 16.4962 12.5638 16.4948 12.014 16.4948C11.4642 16.4948 10.9755 16.4962 10.5416 16.4975C9.13073 16.5016 8.29845 16.5041 7.82668 16.4503C7.75141 16.4419 7.6737 16.4261 7.59609 16.4039L4.5 19.5ZM20.6053 12.7495C21.1003 12.7495 21.6159 12.6108 21.7097 12.1664V12.1669C21.7579 11.9438 21.7657 11.7139 21.7326 11.4881C21.7251 11.407 21.6614 11.2776 21.5409 11.2537C21.0468 11.1558 20.4717 11.2734 19.4742 11.5673C18.8137 11.7619 18.3314 12.0159 18.0637 12.2264C17.9184 12.3408 17.985 12.5925 18.1284 12.6061C18.9506 12.7018 19.7776 12.7497 20.6053 12.7495Z" fill="#0C6D33"/>
</svg>
