<svg width="107" height="12" viewBox="0 0 107 12" fill="none" xmlns="http://www.w3.org/2000/svg">
<path fill-rule="evenodd" clip-rule="evenodd" d="M2.58117 9.41889L7.70946 7.70946L9.41889 2.58117L4.2906 4.2906L2.58117 9.41889ZM11.7071 0.29292C11.975 0.560753 12.0685 0.95692 11.9487 1.31625L9.44871 8.81625C9.34918 9.11486 9.11486 9.34918 8.81625 9.44871L1.31625 11.9487C0.95692 12.0685 0.560753 11.975 0.29292 11.7071C0.0250881 11.4393 -0.0684344 11.0431 0.0513438 10.6838L2.55134 3.1838C2.65088 2.88519 2.88519 2.65088 3.1838 2.55134L10.6838 0.0513438C11.0431 -0.0684344 11.4393 0.0250881 11.7071 0.29292ZM7 6.00003C7 6.55232 6.55228 7.00003 6 7.00003C5.44772 7.00003 5 6.55232 5 6.00003C5 5.44775 5.44772 5.00003 6 5.00003C6.55228 5.00003 7 5.44775 7 6.00003Z" fill="#D9E6E0"/>
<path fill-rule="evenodd" clip-rule="evenodd" d="M66.5812 9.41889L71.7095 7.70946L73.4189 2.58117L68.2906 4.2906L66.5812 9.41889ZM75.7071 0.29292C75.975 0.560753 76.0685 0.95692 75.9487 1.31625L73.4487 8.81625C73.3492 9.11486 73.1149 9.34918 72.8163 9.44871L65.3163 11.9487C64.9569 12.0685 64.5608 11.975 64.2929 11.7071C64.0251 11.4393 63.9316 11.0431 64.0513 10.6838L66.5513 3.1838C66.6509 2.88519 66.8852 2.65088 67.1838 2.55134L74.6838 0.0513438C75.0431 -0.0684344 75.4393 0.0250881 75.7071 0.29292ZM71 6.00003C71 6.55232 70.5523 7.00003 70 7.00003C69.4477 7.00003 69 6.55232 69 6.00003C69 5.44775 69.4477 5.00003 70 5.00003C70.5523 5.00003 71 5.44775 71 6.00003Z" fill="#D9E6E0"/>
<path fill-rule="evenodd" clip-rule="evenodd" d="M38.7071 1.29292C38.3166 0.902399 37.6834 0.902399 37.2929 1.29292C36.9024 1.68345 36.9024 2.31661 37.2929 2.70714L39.5858 5.00003H34C33.4477 5.00003 33 5.44775 33 6.00003C33 6.55232 33.4477 7.00003 34 7.00003H39.5858L37.2929 9.29292C36.9024 9.68345 36.9024 10.3166 37.2929 10.7071C37.6834 11.0977 38.3166 11.0977 38.7071 10.7071L42.7065 6.70777L42.7071 6.70714C42.7093 6.70496 42.7115 6.70277 42.7136 6.70058C42.9038 6.50693 42.9992 6.2551 43 6.00303M42.7136 5.29948C42.8063 5.39383 42.8764 5.50198 42.9241 5.61725C42.8746 5.49791 42.8027 5.39024 42.7136 5.29948ZM38.7071 1.29292L42.7065 5.29229L38.7071 1.29292Z" fill="#D9E6E0"/>
<path fill-rule="evenodd" clip-rule="evenodd" d="M102.707 1.29292C102.317 0.902399 101.683 0.902399 101.293 1.29292C100.902 1.68345 100.902 2.31661 101.293 2.70714L103.586 5.00003H98C97.4477 5.00003 97 5.44775 97 6.00003C97 6.55232 97.4477 7.00003 98 7.00003H103.586L101.293 9.29292C100.902 9.68345 100.902 10.3166 101.293 10.7071C101.683 11.0977 102.317 11.0977 102.707 10.7071L106.706 6.70777L106.707 6.70714C106.709 6.70496 106.711 6.70277 106.714 6.70058C106.904 6.50693 106.999 6.2551 107 6.00303M106.714 5.29948C106.806 5.39383 106.876 5.50198 106.924 5.61725C106.875 5.49791 106.803 5.39024 106.714 5.29948ZM102.707 1.29292L106.706 5.29229L102.707 1.29292Z" fill="#D9E6E0"/>
</svg>
