<svg width="24" height="24" viewBox="0 0 24 24" fill="none" xmlns="http://www.w3.org/2000/svg">
<path d="M17 2H7C4.23858 2 2 4.23858 2 7V17C2 19.7614 4.23858 22 7 22H17C19.7614 22 22 19.7614 22 17V7C22 4.23858 19.7614 2 17 2Z" fill="white"/>
<path d="M16 11.3698C16.1234 12.2021 15.9813 13.052 15.5938 13.7988C15.2063 14.5456 14.5932 15.1512 13.8416 15.5295C13.0901 15.9077 12.2385 16.0394 11.4078 15.9057C10.5771 15.7721 9.80977 15.3799 9.21485 14.785C8.61993 14.1901 8.22774 13.4227 8.09408 12.592C7.96042 11.7614 8.09208 10.9097 8.47034 10.1582C8.8486 9.40667 9.4542 8.79355 10.201 8.40605C10.9478 8.01856 11.7978 7.8764 12.63 7.99981C13.4789 8.1257 14.2649 8.52128 14.8717 9.12812C15.4785 9.73496 15.8741 10.5209 16 11.3698Z" fill="#A9ABB6"/>
<path d="M18.9838 5.27998C19.0301 5.59207 18.9767 5.91081 18.8314 6.19085C18.6861 6.4709 18.4562 6.698 18.1744 6.83985C17.8926 6.9817 17.5732 7.03107 17.2617 6.98095C16.9502 6.93082 16.6624 6.78375 16.4393 6.56066C16.2162 6.33756 16.0692 6.0498 16.0191 5.7383C15.9689 5.42681 16.0183 5.10744 16.1601 4.82562C16.302 4.5438 16.5291 4.31388 16.8091 4.16857C17.0892 4.02325 17.4079 3.96995 17.72 4.01623C18.0384 4.06343 18.3331 4.21177 18.5607 4.43934C18.7882 4.66691 18.9366 4.96163 18.9838 5.27998Z" fill="#A9ABB6"/>
</svg>
