<svg width="24" height="24" viewBox="0 0 24 24" fill="none" xmlns="http://www.w3.org/2000/svg">
<path d="M23 7.625C23 8.38021 22.7493 9.38607 22.248 10.6426C21.7467 11.8991 21.0736 13.1133 20.2285 14.2852C19.7272 15.0013 19.3298 15.5645 19.0361 15.9746C18.7425 16.3848 18.3594 16.8991 17.8867 17.5176C17.4141 18.1361 17.013 18.6276 16.6836 18.9922C16.3542 19.3568 15.971 19.7539 15.5342 20.1836C15.0973 20.6133 14.6999 20.9453 14.3418 21.1797C13.9837 21.4141 13.6006 21.6094 13.1924 21.7656C12.7842 21.9219 12.3867 22 12 22C11.6133 22 11.2158 21.9186 10.8076 21.7559C10.3994 21.5931 10.0163 21.3945 9.6582 21.1602C9.30013 20.9258 8.89909 20.5905 8.45508 20.1543C8.01107 19.7181 7.62435 19.3177 7.29492 18.9531C6.96549 18.5885 6.56445 18.097 6.0918 17.4785C5.61914 16.86 5.236 16.349 4.94238 15.9453C4.64876 15.5417 4.25846 14.9883 3.77148 14.2852C2.88346 13.0482 2.19954 11.821 1.71973 10.6035C1.23991 9.38607 1 8.39323 1 7.625C1 6.07552 1.60514 4.75065 2.81543 3.65039C4.02572 2.55013 5.48307 2 7.1875 2C8.14714 2 9.04232 2.18555 9.87305 2.55664C10.7038 2.92773 11.4128 3.4388 12 4.08984C12.5729 3.4388 13.2783 2.92773 14.1162 2.55664C14.9541 2.18555 15.8529 2 16.8125 2C18.5169 2 19.9743 2.55013 21.1846 3.65039C22.3949 4.75065 23 6.07552 23 7.625Z" fill="#168944"/>
<path fill-rule="evenodd" clip-rule="evenodd" d="M5.84521 17.1548C5.92452 17.2592 6.00674 17.3671 6.09185 17.4785C6.56451 18.097 6.96555 18.5885 7.29497 18.9531C7.6244 19.3177 8.01112 19.7181 8.45513 20.1543C8.89914 20.5905 9.30018 20.9258 9.65826 21.1602C10.0163 21.3945 10.3995 21.5931 10.8077 21.7559C11.2159 21.9186 11.6133 22 12.0001 22C12.3868 22 12.7842 21.9219 13.1924 21.7656C13.6006 21.6094 13.9838 21.4141 14.3419 21.1797C14.6999 20.9453 15.0974 20.6133 15.5342 20.1836C15.9711 19.7539 16.3542 19.3568 16.6836 18.9922C17.0131 18.6276 17.4141 18.1361 17.8868 17.5176C18.3594 16.8991 18.7426 16.3848 19.0362 15.9746C19.3298 15.5645 19.7273 15.0013 20.2286 14.2852C21.0736 13.1133 21.7468 11.8991 22.2481 10.6426C22.7494 9.38606 23.0001 8.38021 23.0001 7.625C23.0001 6.07552 22.3949 4.75065 21.1846 3.65039C20.8523 3.34824 20.5013 3.08758 20.1316 2.86841L5.84521 17.1548Z" fill="#0C6D33"/>
</svg>
