<svg width="46" height="28" viewBox="0 0 46 28" fill="none" xmlns="http://www.w3.org/2000/svg">
<path fill-rule="evenodd" clip-rule="evenodd" d="M10.1761 0C10.2621 0 10.3363 0.0304762 10.3988 0.0914287C10.4613 0.152381 10.4925 0.224762 10.4925 0.308572V2.04571C10.4925 2.12952 10.4613 2.20191 10.3988 2.26286C10.3363 2.32381 10.2621 2.35429 10.1761 2.35429H5.57089V3.08571H9.41445C9.50038 3.08571 9.5746 3.11619 9.63709 3.17714C9.69959 3.2381 9.73084 3.31048 9.73084 3.39429V5.12C9.73084 5.20381 9.69959 5.27619 9.63709 5.33714C9.5746 5.39809 9.50038 5.42857 9.41445 5.42857H5.57089V7.69143C5.57089 7.77524 5.53964 7.84762 5.47714 7.90857C5.41465 7.96952 5.34043 8 5.2545 8H2.72337C2.63744 8 2.56322 7.96952 2.50073 7.90857C2.43823 7.84762 2.40698 7.77524 2.40698 7.69143V0.308572C2.40698 0.224762 2.43823 0.152381 2.50073 0.0914287C2.56322 0.0304762 2.63744 0 2.72337 0H10.1761ZM17.7649 5.65714H19.8859C19.9718 5.65714 20.0461 5.68762 20.1086 5.74857C20.1711 5.80952 20.2023 5.88191 20.2023 5.96571V7.69143C20.2023 7.77524 20.1711 7.84762 20.1086 7.90857C20.0461 7.96952 19.9718 8 19.8859 8H12.4566C12.3707 8 12.2964 7.96952 12.2339 7.90857C12.1714 7.84762 12.1402 7.77524 12.1402 7.69143V5.96571C12.1402 5.88191 12.1714 5.80952 12.2339 5.74857C12.2964 5.68762 12.3707 5.65714 12.4566 5.65714H14.601V2.34286H12.4566C12.3707 2.34286 12.2964 2.31238 12.2339 2.25143C12.1714 2.19048 12.1402 2.1181 12.1402 2.03429V0.308572C12.1402 0.224762 12.1714 0.152381 12.2339 0.0914287C12.2964 0.0304762 12.3707 0 12.4566 0H19.8859C19.9718 0 20.0461 0.0304762 20.1086 0.0914287C20.1711 0.152381 20.2023 0.224762 20.2023 0.308572V2.03429C20.2023 2.1181 20.1711 2.19048 20.1086 2.25143C20.0461 2.31238 19.9718 2.34286 19.8859 2.34286H17.7649V5.65714ZM30.0175 0.0914287C29.955 0.0304762 29.8808 0 29.7949 0H27.6153C27.5294 0 27.4552 0.0304762 27.3927 0.0914287C27.3302 0.152381 27.2989 0.224762 27.2989 0.308572V3.66857L24.7444 0.228572C24.6272 0.0761906 24.4749 0 24.2874 0H22.389C22.3031 0 22.2289 0.0304762 22.1664 0.0914287C22.1039 0.152381 22.0726 0.224762 22.0726 0.308572V7.69143C22.0726 7.77524 22.1039 7.84762 22.1664 7.90857C22.2289 7.96952 22.3031 8 22.389 8H24.5686C24.6545 8 24.7287 7.96952 24.7912 7.90857C24.8537 7.84762 24.885 7.77524 24.885 7.69143V4.58286L27.4396 7.76C27.5645 7.92 27.7208 8 27.9083 8H29.7949C29.8808 8 29.955 7.96952 30.0175 7.90857C30.08 7.84762 30.1113 7.77524 30.1113 7.69143V0.308572C30.1113 0.224762 30.08 0.152381 30.0175 0.0914287ZM36.0478 0C37.3681 0 38.4227 0.278095 39.2117 0.834286C40.0086 1.39048 40.407 2.25143 40.407 3.41714V4.58286C40.407 5.77143 40.0125 6.64 39.2234 7.18857C38.4422 7.72952 37.3837 8 36.0478 8H32.3097C32.2238 8 32.1496 7.96952 32.0871 7.90857C32.0246 7.84762 31.9933 7.77524 31.9933 7.69143V0.308572C31.9933 0.224762 32.0246 0.152381 32.0871 0.0914287C32.1496 0.0304762 32.2238 0 32.3097 0H36.0478ZM36.1064 5.77143C36.4736 5.77143 36.7626 5.68762 36.9736 5.52C37.1923 5.34476 37.3017 5.10095 37.3017 4.78857V3.21143C37.3017 2.89905 37.1923 2.65905 36.9736 2.49143C36.7626 2.31619 36.4736 2.22857 36.1064 2.22857H35.0401V5.77143H36.1064ZM23.7413 15.7222C23.8281 15.7222 23.9031 15.7519 23.9662 15.8111C24.0293 15.8704 24.0609 15.9407 24.0609 16.0222V17.7C24.0609 17.7815 24.0293 17.8519 23.9662 17.9111C23.9031 17.9704 23.8281 18 23.7413 18H16.8271C16.7403 18 16.6653 17.9704 16.6021 17.9111C16.539 17.8519 16.5074 17.7815 16.5074 17.7V10.3C16.5074 10.2185 16.539 10.1481 16.6021 10.0889C16.6653 10.0296 16.7403 10 16.8271 10H19.3844C19.4712 10 19.5462 10.0296 19.6093 10.0889C19.6725 10.1481 19.704 10.2185 19.704 10.3V15.7222H23.7413ZM11.2323 13.8145C11.3557 13.8145 11.4173 13.9121 11.4173 14.1074C11.4173 14.4438 11.1668 14.8796 10.6658 15.4149L10.3363 15.7296C9.33812 16.6664 8.39775 17.2903 7.5152 17.6013C6.96794 17.793 6.57484 17.784 6.33589 17.5742C6.13934 17.397 5.98326 17.1113 5.86764 16.717L5.72889 16.245L4.49756 16.9557L3.7865 17.3355C2.93864 17.7695 2.30273 17.9865 1.8788 17.9865C1.33539 17.9865 0.882554 17.7894 0.520283 17.3952C0.173428 17.0226 0 16.5904 0 16.0985C0 15.6139 0.206186 15.1816 0.618559 14.8019C1.20821 14.2593 2.13894 13.762 3.41074 13.3099C4.61318 12.8867 5.58437 12.6751 6.32433 12.6751C6.57484 12.6751 6.70009 12.7909 6.70009 13.0224C6.70009 13.1815 6.66733 13.3009 6.60181 13.3804C6.5363 13.46 6.40141 13.5414 6.19715 13.6246L5.46875 13.9175C4.38965 14.3407 3.59959 14.7802 3.09857 15.2359C2.95598 15.3625 2.88468 15.4855 2.88468 15.6048C2.88468 15.7242 2.98681 15.7839 3.19107 15.7839C3.39147 15.7839 3.8578 15.5813 4.59005 15.1762L5.06987 14.9104C5.81368 14.4908 6.43609 14.281 6.93711 14.281C7.36104 14.281 7.64238 14.4565 7.78112 14.8073C7.81581 14.9013 7.84857 14.9972 7.8794 15.0948C7.91023 15.1889 7.94106 15.2739 7.97189 15.3498C8.04126 15.5271 8.10293 15.6157 8.15688 15.6157C8.21469 15.6157 8.29562 15.5904 8.39968 15.5397C8.50374 15.4855 8.61743 15.4185 8.74076 15.339C8.86794 15.2558 8.99897 15.1654 9.13386 15.0677L9.83335 14.5415C10.4538 14.0568 10.9202 13.8145 11.2323 13.8145ZM33.2482 17.1889C34.0532 16.6481 34.4558 15.8111 34.4558 14.6778V13.3222C34.4558 12.5741 34.2624 11.9519 33.8757 11.4556C33.4889 10.9593 32.964 10.5926 32.301 10.3556C31.6459 10.1185 30.8961 10 30.0516 10C29.207 10 28.4532 10.1185 27.7902 10.3556C27.1272 10.5926 26.6024 10.963 26.2156 11.4667C25.8368 11.963 25.6473 12.5889 25.6473 13.3444V14.6556C25.6473 15.8037 26.0459 16.6481 26.8431 17.1889C27.6482 17.7296 28.7177 18 30.0516 18C31.3855 18 32.451 17.7296 33.2482 17.1889ZM29.1636 15.5889C28.9505 15.4259 28.8439 15.1926 28.8439 14.8889V13.1111C28.8439 12.8074 28.9505 12.5741 29.1636 12.4111C29.3846 12.2481 29.6806 12.1667 30.0516 12.1667C30.4225 12.1667 30.7146 12.2519 30.9277 12.4222C31.1487 12.5852 31.2592 12.8185 31.2592 13.1222V14.8778C31.2592 15.1815 31.1487 15.4185 30.9277 15.5889C30.7146 15.7519 30.4225 15.8333 30.0516 15.8333C29.6806 15.8333 29.3846 15.7519 29.1636 15.5889ZM38.9301 17.7C38.9064 17.7667 38.8472 17.8333 38.7525 17.9C38.6657 17.9667 38.5512 18 38.4091 18H36.7516C36.6017 18 36.4754 17.9593 36.3728 17.8778C36.2781 17.7889 36.2228 17.6889 36.207 17.5778L35.207 10.2778V10.2444C35.207 10.1778 35.2307 10.1222 35.2781 10.0778C35.3333 10.0259 35.3965 10 35.4675 10H37.5039C37.6617 10 37.788 10.0444 37.8827 10.1333C37.9853 10.2222 38.0445 10.3333 38.0603 10.4667L38.5476 13.9778L39.381 12.3222C39.4047 12.2481 39.46 12.1778 39.5468 12.1111C39.6415 12.037 39.7599 12 39.902 12H40.707C40.8491 12 40.9635 12.037 41.0504 12.1111C41.1451 12.1778 41.2043 12.2481 41.228 12.3222L41.7679 13.9778L42.207 10.5C42.2228 10.3667 42.2781 10.2556 42.3728 10.1667C42.4754 10.0778 42.6056 10.0333 42.7635 10.0333H44.7998C44.8709 10.0333 44.9301 10.0593 44.9774 10.1111C45.0327 10.1556 45.0603 10.2111 45.0603 10.2778V10.3111L43.8316 17.5778C43.8158 17.6889 43.7566 17.7889 43.654 17.8778C43.5593 17.9593 43.4369 18 43.2869 18H41.6294C41.4874 18 41.369 17.9667 41.2743 17.9C41.1874 17.8333 41.1322 17.7667 41.1085 17.7L40.1577 15.2444L38.9301 17.7ZM10.9124 27.7486C10.9124 27.7105 10.9046 27.6762 10.8889 27.6457L9.44355 25.0171C10.2661 24.5524 10.6774 23.8019 10.6774 22.7657C10.6774 22.2019 10.5364 21.7105 10.2543 21.2914C9.97233 20.8724 9.56497 20.5524 9.03227 20.3314C8.5074 20.1105 7.89244 20 7.1874 20H2.61634C2.53017 20 2.45575 20.0305 2.39308 20.0914C2.33041 20.1524 2.29907 20.2248 2.29907 20.3086V27.6914C2.29907 27.7752 2.33041 27.8476 2.39308 27.9086C2.45575 27.9695 2.53017 28 2.61634 28H5.15451C5.24068 28 5.31511 27.9695 5.37778 27.9086C5.44045 27.8476 5.47178 27.7752 5.47178 27.6914V25.4514H6.45885L7.49292 27.7143C7.53209 27.7981 7.59476 27.8667 7.68093 27.92C7.77494 27.9733 7.87678 28 7.98645 28H10.6539C10.7244 28 10.7831 27.9771 10.8301 27.9314C10.885 27.8781 10.9124 27.8171 10.9124 27.7486ZM7.34016 23.1771C7.24615 23.2838 7.11297 23.3371 6.94063 23.3371H5.47178V22.1257H6.94063C7.12081 22.1257 7.25398 22.1905 7.34016 22.32C7.43416 22.4419 7.48117 22.5867 7.48117 22.7543C7.48117 22.9219 7.43416 23.0629 7.34016 23.1771ZM13.9865 28C14.2372 28 14.4135 27.8705 14.5153 27.6114L14.8091 26.8114H17.6763L17.97 27.6114C18.0719 27.8705 18.2481 28 18.4988 28H20.7197C20.7902 28 20.849 27.9771 20.896 27.9314C20.9508 27.8781 20.9782 27.8171 20.9782 27.7486L20.9665 27.68L18.4048 20.3771C18.3735 20.2781 18.3147 20.1905 18.2285 20.1143C18.1424 20.0381 18.0249 20 17.876 20H14.6093C14.4605 20 14.3429 20.0381 14.2568 20.1143C14.1706 20.1905 14.1118 20.2781 14.0805 20.3771L11.5188 27.68L11.5071 27.7486C11.5071 27.8171 11.5306 27.8781 11.5776 27.9314C11.6324 27.9771 11.6951 28 11.7656 28H13.9865ZM15.4084 24.5829L16.2427 22.2057L17.077 24.5829H15.4084ZM30.245 20C30.3312 20 30.4056 20.0305 30.4683 20.0914C30.5309 20.1524 30.5623 20.2248 30.5623 20.3086V22.1486C30.5623 22.2324 30.5309 22.3048 30.4683 22.3657C30.4056 22.4267 30.3312 22.4571 30.245 22.4571H27.7186V27.6914C27.7186 27.7752 27.6872 27.8476 27.6246 27.9086C27.5619 27.9695 27.4875 28 27.4013 28H24.9806C24.8945 28 24.82 27.9695 24.7574 27.9086C24.6947 27.8476 24.6634 27.7752 24.6634 27.6914V22.4571H22.137C22.0508 22.4571 21.9764 22.4267 21.9137 22.3657C21.851 22.3048 21.8197 22.2324 21.8197 22.1486V20.3086C21.8197 20.2248 21.851 20.1524 21.9137 20.0914C21.9764 20.0305 22.0508 20 22.137 20H30.245ZM40.2051 25.8629C40.1424 25.8019 40.068 25.7714 39.9818 25.7714H35.2932V25.0514H39.218C39.3042 25.0514 39.3786 25.021 39.4413 24.96C39.5039 24.899 39.5353 24.8267 39.5353 24.7429V23.2571C39.5353 23.1733 39.5039 23.101 39.4413 23.04C39.3786 22.979 39.3042 22.9486 39.218 22.9486H35.2932V22.2286H39.8643C39.9505 22.2286 40.0249 22.1981 40.0876 22.1371C40.1502 22.0762 40.1816 22.0038 40.1816 21.92V20.3086C40.1816 20.2248 40.1502 20.1524 40.0876 20.0914C40.0249 20.0305 39.9505 20 39.8643 20H32.5553C32.4691 20 32.3947 20.0305 32.332 20.0914C32.2694 20.1524 32.238 20.2248 32.238 20.3086V27.6914C32.238 27.7752 32.2694 27.8476 32.332 27.9086C32.3947 27.9695 32.4691 28 32.5553 28H39.9818C40.068 28 40.1424 27.9695 40.2051 27.9086C40.2677 27.8476 40.2991 27.7752 40.2991 27.6914V26.08C40.2991 25.9962 40.2677 25.9238 40.2051 25.8629Z" fill="url(#paint0_angular)"/>
<defs>
<radialGradient id="paint0_angular" cx="0" cy="0" r="1" gradientUnits="userSpaceOnUse" gradientTransform="translate(44.4166) rotate(128.013) scale(35.5389 138.101)">
<stop stop-color="#0C6C32"/>
<stop offset="1" stop-color="#168944"/>
</radialGradient>
</defs>
</svg>
