<svg width="60" height="60" viewBox="0 0 60 60" fill="none" xmlns="http://www.w3.org/2000/svg">
<path d="M53.9999 28.6667C54.0091 32.1863 53.1868 35.6584 51.5999 38.8C49.7184 42.5647 46.8259 45.7311 43.2465 47.9448C39.667 50.1584 35.5419 51.3317 31.3333 51.3333C27.8137 51.3425 24.3416 50.5202 21.2 48.9333L6 54L11.0667 38.8C9.47981 35.6584 8.65749 32.1863 8.66666 28.6667C8.66829 24.4581 9.84163 20.333 12.0552 16.7535C14.2689 13.1741 17.4353 10.2816 21.2 8.40007C24.3416 6.81322 27.8137 5.9909 31.3333 6.00008H32.6666C38.2249 6.30672 43.4747 8.65277 47.411 12.589C51.3472 16.5253 53.6933 21.7751 53.9999 27.3334V28.6667Z" fill="#FF6D4E"/>
<circle cx="19" cy="29" r="4" fill="white"/>
<circle cx="31" cy="29" r="4" fill="white"/>
<circle cx="43" cy="29" r="4" fill="white"/>
</svg>
