<svg width="24" height="24" viewBox="0 0 24 24" fill="none" xmlns="http://www.w3.org/2000/svg">
<path fill-rule="evenodd" clip-rule="evenodd" d="M16.8023 9.53929C17.0708 9.95107 17.2728 10.4082 17.3984 10.8889H19.6923V13.1112H17.5384V15.3334H19.6923V17.5556H17.5384V22H21.8784C23.0523 22 24 21.0223 24 19.8112V4.18894C24 3.59552 23.7724 3.05812 23.4023 2.66431L19.6923 6.52889V8.66672H17.64L16.8023 9.53929ZM4.83997 22H4.99997V21.8334L4.83997 22ZM9.99997 16.625L14.9981 11.4186C14.9994 11.451 15 11.4834 15 11.516V20.8313C15 21.4741 14.5178 22 13.9285 22H9.99997V16.625Z" fill="#0C6D33"/>
<path fill-rule="evenodd" clip-rule="evenodd" d="M21.8785 2H12.1215C10.9477 2 10 2.97778 10 4.18889L10.0969 4.28889C10.14 4.31667 10.1831 4.34167 10.2262 4.36667C10.2692 4.39167 10.3123 4.41667 10.3554 4.44444L15.74 8.41111C16.1606 8.71942 16.5186 9.10401 16.8023 9.53925L17.64 8.66672H19.6923V8.66667H17.5385V6.44444H19.6923V6.52886L23.4023 2.66431C23.7724 3.05812 24 3.59552 24 4.18894V19.8112C24 20.0948 23.948 20.3657 23.8533 20.6143C23.948 20.3657 24 20.0948 24 19.8111V4.18889C24 2.97778 23.0523 2 21.8785 2ZM17.5385 17.5556H19.6923V17.5556H17.5385V17.5556ZM17.5385 13.1112H19.6923V13.1111H17.5385V13.1112ZM14.1 9.61086L8.74286 5.43829C7.99286 4.8539 6.99643 4.8539 6.25714 5.43829L0.9 9.61086C0.332143 10.055 0 10.7563 0 11.516V20.8312C0 21.474 0.482143 22 1.07143 22H4.84001L4.99997 21.8334V22H5V14.9873H10V16.625L14.9981 11.4186C14.9994 11.451 15 11.4834 15 11.516V20.8313C15 20.9895 14.9708 21.1407 14.9179 21.2787C14.9708 21.1407 15 20.9895 15 20.8312V11.516C15 10.7563 14.6679 10.055 14.1 9.61086Z" fill="#168944"/>
</svg>
