<svg width="24" height="24" viewBox="0 0 24 24" fill="none" xmlns="http://www.w3.org/2000/svg">
<rect x="5" y="8" width="14" height="11" fill="white"/>
<path d="M19 3H18V2C18 1.44772 17.5523 1 17 1C16.4477 1 16 1.44772 16 2V3H8V2C8 1.44772 7.55228 1 7 1C6.44772 1 6 1.44772 6 2V3H5C3.89 3 3.01 3.9 3.01 5L3 19C3 19.5304 3.21071 20.0391 3.58579 20.4142C3.96086 20.7893 4.46957 21 5 21H19C20.1 21 21 20.1 21 19V5C21 3.9 20.1 3 19 3ZM19 19H5V8H19V19Z" fill="#A9ABB6"/>
<path fill-rule="evenodd" clip-rule="evenodd" d="M16.5763 10.2144C17.0584 10.5561 17.1414 11.1848 16.7618 11.6187L12.3868 16.6187C12.188 16.8458 11.8898 16.9844 11.569 16.9988C11.2481 17.0131 10.9361 16.9018 10.7133 16.6935L7.31057 13.5117C6.88503 13.1138 6.89847 12.4807 7.34059 12.0977C7.78271 11.7147 8.4861 11.7268 8.91164 12.1247L11.43 14.4796L15.0159 10.3814C15.3956 9.94746 16.0942 9.87271 16.5763 10.2144Z" fill="#FF6D4E"/>
</svg>
